<svg width="195" height="95" viewBox="0 0 195 95" fill="none" xmlns="http://www.w3.org/2000/svg">
<path d="M0.298828 1.46573V0.488578H4.30649C6.2379 0.488578 6.5759 1.31916 6.5759 3.46889V4.15289C7.87959 1.6123 10.3904 0 13.3358 0C16.6192 0 18.8403 2.00316 19.7095 5.08118C20.82 2.00316 23.4274 0 26.4694 0C31.153 0 32.8913 4.69032 33.3741 10.4067L34.6296 24.9173H33.6639C31.2496 24.9173 30.5736 23.0608 30.4288 21.1065L29.5113 10.4067C29.0768 5.37433 27.8214 2.10088 24.876 2.10088C22.7514 2.10088 20.0957 3.85975 20.0957 8.35464V21.0087C20.0957 23.1585 20.6269 23.6959 22.51 23.9402V24.9173H13.8187V23.9402C15.7018 23.6959 16.2329 23.1585 16.2329 21.0087V8.25692C16.2329 4.10403 14.2532 2.10088 11.6458 2.10088C9.18329 2.10088 6.5759 3.85975 6.5759 8.35464V21.0087C6.5759 23.1585 7.10703 23.6959 8.99015 23.9402V24.9173H0.298828V23.9402C2.18195 23.6959 2.71308 23.1585 2.71308 21.0087V4.39718C2.71308 2.24745 2.18195 1.71001 0.298828 1.46573ZM36.561 23.9402V24.9173H34.6296L34.2916 21.0087C34.4847 23.1585 35.1124 23.6959 36.561 23.9402Z" fill="white"/>
<path d="M46.7963 24.9173L38.7327 5.71633C37.5738 2.98031 36.9461 1.80773 35.5941 1.46573V0.488578H43.6577V1.46573C41.7746 1.9543 42.1609 3.71317 43.2232 6.40034L48.9208 19.885L53.0733 9.96694C54.6668 6.20491 54.6668 3.71317 51.3351 2.39402L53.7493 0C56.8879 0 57.1293 2.78488 55.9222 5.66747L46.4583 28.2397C44.72 32.3925 42.354 37.1317 38.6844 37.1317V33.2231C41.8229 33.2231 44.044 31.4642 45.396 28.2397L46.7963 24.9173Z" fill="white"/>
<path d="M122.304 72.7078L119.152 75.0561C117.478 72.2185 115.064 70.653 112.257 70.653C108.416 70.653 105.51 73.5395 105.51 79.1168C105.51 86.5044 110.09 92.4731 116.739 92.4731C119.448 92.4731 121.91 91.4946 123.585 89.5377L123.979 89.8312C121.861 93.0602 118.561 94.6258 114.769 94.6258C107.529 94.6258 102.112 88.9506 102.112 81.9055C102.112 74.6647 107.529 69.1852 114.178 69.1852C117.576 69.1852 120.236 70.604 122.304 72.7078Z" fill="white"/>
<path d="M126.7 60.8681V59.8896H130.788C132.758 59.8896 133.102 60.7214 133.102 62.874V90.2226C133.102 92.3753 133.644 92.9134 135.565 93.1581V94.1365H126.7V93.1581C128.621 92.9134 129.163 92.3753 129.163 90.2226V63.8036C129.163 61.6509 128.621 61.1128 126.7 60.8681Z" fill="white"/>
<path d="M136.56 70.653V69.6745H138.53L138.874 73.5884C138.677 71.4357 138.037 70.8976 136.56 70.653ZM139.515 69.6745C141.977 69.6745 142.667 71.5336 142.814 73.4906L143.75 84.2049C144.193 89.2441 145.474 92.522 148.478 92.522C150.645 92.522 153.354 90.7608 153.354 86.2597V73.5884C153.354 71.4357 152.812 70.8976 150.891 70.653V69.6745H154.979C156.949 69.6745 157.294 70.5062 157.294 72.6588V90.2226C157.294 92.3753 157.835 92.9134 159.756 93.1581V94.1365H155.668C153.698 94.1365 153.354 93.3048 153.354 91.1522V90.5161C152.073 93.0602 149.611 94.6258 146.853 94.6258C142.076 94.6258 140.303 89.9291 139.81 84.2049L138.53 69.6745H139.515Z" fill="white"/>
<path d="M163.204 60.8681V59.8896H167.292C169.262 59.8896 169.607 60.7214 169.607 62.874V73.2459C170.838 70.5062 173.153 69.1852 175.714 69.1852C181.033 69.1852 185.958 74.8604 185.958 82.3947C185.958 90.0758 180.885 94.6258 176.206 94.6258C173.448 94.6258 171.134 93.0113 169.607 90.7118V91.1522C169.607 93.3048 169.262 94.1365 167.292 94.1365H163.204V93.1581C165.125 92.9134 165.667 92.3753 165.667 90.2226V63.8036C165.667 61.6509 165.125 61.1128 163.204 60.8681ZM169.607 84.0092C169.607 88.4124 172.907 93.5005 176.994 93.5005C180.688 93.5005 182.116 89.4398 182.116 84.2049C182.116 76.1325 178.718 71.0443 174.532 71.0443C171.971 71.0443 169.607 72.9035 169.607 78.4319V84.0092Z" fill="white"/>
<path d="M0 27.5496V26.3518H13.1758C20.4224 26.3518 26.3515 29.7056 26.3515 36.9523C26.3515 42.2226 23.2972 46.0556 19.4642 47.6127C24.3752 48.8704 28.2081 52.5836 28.2081 58.1533C28.2081 65.0407 22.3988 68.2747 15.2719 68.2747H0V67.0769C2.3357 66.7775 2.99449 66.1187 2.99449 63.4835V31.143C2.99449 28.5078 2.3357 27.8491 0 27.5496ZM7.78568 27.5496V39.7671C7.78568 44.1391 11.439 46.4748 14.4335 46.4748C18.2664 46.4748 21.5604 42.582 21.5604 37.0122C21.5604 31.3227 18.0867 27.5496 13.1758 27.5496H7.78568ZM7.78568 67.0769H15.2719C20.3027 67.0769 23.4169 63.3637 23.4169 57.9138C23.4169 52.1643 19.9433 48.3314 15.751 48.3314C12.4571 48.3314 9.40271 46.6545 7.78568 44.0193V67.0769Z" fill="#AA91A0"/>
<path d="M31.8165 27.5496V26.3518H58.1081V32.3408H56.9103C55.8323 28.6875 53.6763 27.5496 50.6219 27.5496H39.6022V46.7144H44.8126C47.867 46.7144 49.5439 46.2951 50.5021 43.7199H51.6999V50.9067H50.5021C49.5439 48.3314 47.867 47.9122 44.8126 47.9122H39.6022V67.0769H50.6219C53.6763 67.0769 55.8323 65.939 56.9103 62.2857H58.1081V68.2747H31.8165V67.0769C34.1522 66.7775 34.811 66.1187 34.811 63.4835V31.143C34.811 28.5078 34.1522 27.8491 31.8165 27.5496Z" fill="#AA91A0"/>
<path d="M69.5345 67.0769V68.2747H61.09V67.0769C62.4675 66.7176 63.246 65.4 64.3839 62.5253L77.5597 26.3518H79.9553L93.1311 62.5253C94.269 65.4 95.0476 66.7176 96.425 67.0769V68.2747H86.5432V67.0769C88.28 66.478 88.8789 65.4599 87.9207 62.2258L84.5069 52.883H69.1751L67.079 58.5127C65.1625 64.4418 65.9411 66.4181 69.5345 67.0769ZM69.5944 51.6852H84.0877L76.841 31.8018L69.5944 51.6852Z" fill="#AA91A0"/>
<path d="M95.8589 27.5496V26.3518H106.639V27.5496C104.303 27.8491 103.645 28.5078 103.645 31.143V55.3984C103.645 61.2676 107.178 66.5379 113.706 66.5379C119.815 66.5379 124.007 61.9863 124.007 55.3984V33.5386C124.007 28.9271 122.809 28.0886 119.815 27.5496V26.3518H128.199V27.5496C125.564 28.0287 125.205 28.9271 125.205 32.9397V55.3984C125.205 63.3637 120.174 68.8736 112.089 68.8736C104.363 68.8736 98.8534 63.7231 98.8534 55.3984V31.143C98.8534 28.5078 98.1946 27.8491 95.8589 27.5496Z" fill="#AA91A0"/>
<path d="M141.097 67.0769C143.432 66.7775 144.091 66.1187 144.091 63.4835V27.5496H139.3C135.048 27.5496 134.689 29.8853 135.946 31.9815L135.527 32.4007C130.556 30.9633 130.676 26.3518 135.707 26.3518H157.267C162.298 26.3518 162.418 30.9633 157.447 32.4007L157.027 31.9815C158.285 29.8853 157.926 27.5496 153.674 27.5496H148.882V63.4835C148.882 66.1187 149.541 66.7775 151.877 67.0769V68.2747H141.097V67.0769Z" fill="#AA91A0"/>
<path d="M186.436 27.5496V26.3518H195V27.5496C193.443 27.9688 192.125 29.4062 190.269 32.5205L182.004 46.7743V63.4835C182.004 66.1187 182.663 66.7775 184.998 67.0769V68.2747H174.218V67.0769C176.554 66.7775 177.213 66.1187 177.213 63.4835V47.9122L168.469 32.76C166.373 29.3463 165.235 27.9089 163.558 27.5496V26.3518H173.859V27.5496C172.062 28.2683 172.362 29.7056 173.859 32.5804L181.345 45.5166L187.454 34.9161C189.73 30.4842 189.49 28.6875 186.436 27.5496Z" fill="#AA91A0"/>
</svg>
